<?xml version="1.0" encoding="utf-8"?>
<!-- Generator: Adobe Illustrator 21.0.0, SVG Export Plug-In . SVG Version: 6.00 Build 0)  -->
<svg version="1.1" id="Layer_1" xmlns="http://www.w3.org/2000/svg" xmlns:xlink="http://www.w3.org/1999/xlink" x="0px" y="0px"
	 viewBox="0 0 205 148" style="enable-background:new 0 0 205 148;" xml:space="preserve">
<style type="text/css">
	.st0{enable-background:new    ;}
	.st1{fill:#FFFFFF;}
</style>
<title>CIGI 2017</title>
<desc>Created with Sketch.</desc>
<g id="Concepts">
	<g id="LANDING-Copy-40" transform="translate(-350.000000, -315.000000)">
		<g class="st0">
			<path class="st1" d="M403.5,384c-5.9,3-10.7,3.6-14.7,3.6c-12.3,0-20.6-4.2-26.2-9.7c-6-5.8-10.4-14.6-10.4-25.3
				c0-10.5,4.4-19.3,10.4-25.1c5.9-5.7,14.5-9.6,24.9-9.6c4.4,0,9.5,0.9,16,3.7v17.8c-3.4-3.6-8.5-7.1-15.6-7.1
				c-5.6,0-10.1,1.8-13.6,5.2c-3.7,3.6-6.3,9-6.3,15.4c0,6.9,2.8,11.8,5.8,14.7c1.4,1.4,6.2,5.6,14.4,5.6c4,0,9.4-1.1,15.3-6.9V384z
				"/>
		</g>
		<g>
		</g>
		<g class="st0">
			<path class="st1" d="M439.4,319.4v66.7H424v-66.7H439.4z"/>
		</g>
		<g>
		</g>
		<g class="st0">
			<path class="st1" d="M491.2,349.7h33.1v0.7c0,8.1-2.9,20.4-10.3,28.1s-15.9,9.1-23.8,9.1c-8,0-16.6-1.3-24.4-9.3
				c-3.9-4-9.8-12.1-9.8-25.4c0-10.9,4-19.6,9.6-25.3c8.2-8.5,18.3-9.7,26.2-9.7c5.5,0,12.5,0.9,18.7,5c4.5,3,8.4,7.7,10.8,11.9
				l-13.9,7.5c-1.3-2.6-3.3-5.3-5.9-7.2c-3-2.2-6.4-3.2-10.2-3.2c-6.1,0-10.6,2-13.8,5.4c-3.7,3.9-5.7,9.6-5.7,15.8
				c0,7.6,2.8,12.5,5.6,15.3c3.9,4,8.4,5.2,13.5,5.2c6.6,0,10.1-2.3,11.6-3.6c0.5-0.4,3.5-3,4.8-7.9h-16.1V349.7z"/>
		</g>
		<g>
		</g>
		<g class="st0">
			<path class="st1" d="M555.6,319.4v66.7h-15.4v-66.7H555.6z"/>
		</g>
		<g>
		</g>
		<g class="st0">
			<path class="st1" d="M401.4,463.1h-51l20-21.8c3.5-3.9,8.8-10.4,10.9-13.6c1.5-2.4,4-6.7,4-11.3c0-2.5-1-5.1-2.6-6.6
				c-1.3-1.2-3.5-1.9-6.1-1.9c-2.9,0-4.8,1-6.1,2.4c-1.8,2-2.8,5.6-2.8,8.2h-15.4c0.5-5.8,2.8-12.4,6.9-16.7
				c3.2-3.4,8.9-6.9,18.4-6.9c9.7,0,14.9,4,17.3,6.3c3.6,3.6,6.2,9.1,6.2,16c0,5.9-1.8,10.2-5,14.7c-2.9,4-6.4,7.4-10.7,11.5l-7,6.7
				h23V463.1z"/>
		</g>
		<g>
		</g>
		<g class="st0">
			<path class="st1" d="M453,457.7c-3.9,3.8-9.7,6.9-17.9,6.9c-8,0-13.7-3-17.7-6.9c-6.5-6.4-9.6-16.5-9.6-27.9
				c0-11.5,3.1-21.7,9.6-28c4-3.9,9.7-6.9,17.7-6.9c8.2,0,14,3.1,17.9,6.9c6.5,6.3,9.6,16.5,9.6,28
				C462.6,441.2,459.5,451.3,453,457.7z M429,410.6c-4.9,4.8-5.6,14.4-5.6,19.1c0,5.2,0.9,14.6,5.6,19.2c1.8,1.7,3.6,2.5,6.2,2.5
				s4.4-0.8,6.2-2.5c4.7-4.6,5.6-14,5.6-19.2c0-4.7-0.7-14.3-5.6-19.1c-1.8-1.7-3.6-2.5-6.2-2.5S430.8,408.9,429,410.6z"/>
		</g>
		<g>
		</g>
		<g class="st0">
			<path class="st1" d="M476.8,409.4h-9.5v-13h24.9v66.7h-15.4V409.4z"/>
		</g>
		<g>
		</g>
		<g class="st0">
			<path class="st1" d="M532.1,409.4h-29.4v-13h53l-39.5,68.2l-14.3-3.5L532.1,409.4z"/>
		</g>
	</g>
</g>
</svg>
