<?xml version="1.0" encoding="utf-8"?>
<!-- Generator: Adobe Illustrator 21.0.0, SVG Export Plug-In . SVG Version: 6.00 Build 0)  -->
<svg version="1.1" id="Layer_1" xmlns="http://www.w3.org/2000/svg" xmlns:xlink="http://www.w3.org/1999/xlink" x="0px" y="0px"
	 viewBox="0 0 205 148" style="enable-background:new 0 0 205 148;" xml:space="preserve">
<style type="text/css">
	.st0{enable-background:new    ;}
	.st1{fill:#FFFFFF;}
</style>
<title>CIGI 2017</title>
<desc>Created with Sketch.</desc>
<g id="Concepts">
	<g id="LANDING-Copy-40" transform="translate(-350.000000, -315.000000)">
		<g class="st0">
			<path class="st1" d="M406.4,384.1c-5.5,2.8-9.9,3.3-13.7,3.3c-11.4,0-19.2-3.9-24.4-9c-5.6-5.4-9.7-13.6-9.7-23.5
				c0-9.8,4.1-17.9,9.7-23.3c5.5-5.3,13.5-8.9,23.2-8.9c4.1,0,8.8,0.8,14.9,3.4v16.6c-3.2-3.3-7.9-6.6-14.5-6.6
				c-5.2,0-9.4,1.7-12.6,4.8c-3.4,3.3-5.9,8.4-5.9,14.3c0,6.4,2.6,11,5.4,13.7c1.3,1.3,5.8,5.2,13.4,5.2c3.7,0,8.7-1,14.2-6.4
				L406.4,384.1L406.4,384.1z"/>
		</g>
		<g class="st0">
			<path class="st1" d="M439.8,324v62h-14.3v-62L439.8,324L439.8,324z"/>
		</g>
		<g class="st0">
			<path class="st1" d="M487.9,352.2h30.8v0.7c0,7.5-2.7,19-9.6,26.1c-6.9,7.2-14.8,8.5-22.1,8.5c-7.4,0-15.4-1.2-22.7-8.6
				c-3.6-3.7-9.1-11.3-9.1-23.6c0-10.1,3.7-18.2,8.9-23.5c7.6-7.9,17-9,24.4-9c5.1,0,11.6,0.8,17.4,4.6c4.2,2.8,7.8,7.2,10,11.1
				l-12.9,7c-1.2-2.4-3.1-4.9-5.5-6.7c-2.8-2-6-3-9.5-3c-5.7,0-9.9,1.9-12.8,5c-3.4,3.6-5.3,8.9-5.3,14.7c0,7.1,2.6,11.6,5.2,14.2
				c3.6,3.7,7.8,4.8,12.6,4.8c6.1,0,9.4-2.1,10.8-3.3c0.5-0.4,3.3-2.8,4.5-7.3h-15L487.9,352.2L487.9,352.2z"/>
		</g>
		<g class="st0">
			<path class="st1" d="M547.8,324v62h-14.3v-62L547.8,324L547.8,324z"/>
		</g>
		<g class="st0">
			<path class="st1" d="M404.4,457.6H357l18.6-20.3c3.3-3.6,8.2-9.7,10.1-12.6c1.4-2.2,3.7-6.2,3.7-10.5c0-2.3-0.9-4.7-2.4-6.1
				c-1.2-1.1-3.3-1.8-5.7-1.8c-2.7,0-4.5,0.9-5.7,2.2c-1.7,1.9-2.6,5.2-2.6,7.6h-14.3c0.5-5.4,2.6-11.5,6.4-15.5
				c3-3.2,8.3-6.4,17.1-6.4c9,0,13.9,3.7,16.1,5.9c3.3,3.3,5.8,8.5,5.8,14.9c0,5.5-1.7,9.5-4.6,13.7c-2.7,3.7-6,6.9-9.9,10.7
				l-6.5,6.2h21.4L404.4,457.6L404.4,457.6z"/>
		</g>
		<g class="st0">
			<path class="st1" d="M452.4,452.6c-3.6,3.5-9,6.4-16.6,6.4c-7.4,0-12.7-2.8-16.5-6.4c-6-6-8.9-15.3-8.9-25.9
				c0-10.7,2.9-20.2,8.9-26c3.7-3.6,9-6.4,16.5-6.4c7.6,0,13,2.9,16.6,6.4c6,5.9,8.9,15.3,8.9,26
				C461.3,437.3,458.4,446.7,452.4,452.6z M430.1,408.8c-4.6,4.5-5.2,13.4-5.2,17.8c0,4.8,0.8,13.6,5.2,17.9
				c1.7,1.6,3.3,2.3,5.8,2.3c2.4,0,4.1-0.7,5.8-2.3c4.4-4.3,5.2-13,5.2-17.9c0-4.4-0.7-13.3-5.2-17.8c-1.7-1.6-3.3-2.3-5.8-2.3
				C433.4,406.5,431.8,407.2,430.1,408.8z"/>
		</g>
		<g class="st0">
			<path class="st1" d="M474.5,407.7h-8.8v-12.1h23.2v62h-14.3V407.7z"/>
		</g>
		<g class="st0">
			<path class="st1" d="M526,407.7h-27.3v-12.1h49.3L511.2,459l-13.3-3.3L526,407.7z"/>
		</g>
	</g>
</g>
</svg>
