<?xml version="1.0" encoding="UTF-8"?>
<svg width="30px" height="30px" viewBox="0 0 30 30" version="1.1" xmlns="http://www.w3.org/2000/svg" xmlns:xlink="http://www.w3.org/1999/xlink">
  <defs>
    <polygon id="path-1" points="19.0503646 0.292391377 19.0503646 19.1673177 0.12948536 19.1673177 0.12948536 0.292391377"></polygon>
  </defs>
  <g id="Hints" stroke="none" stroke-width="1" fill="none" fill-rule="evenodd" opacity="0.5">
    <g transform="translate(10.070964, 10.051504)">
      <mask id="mask-2" fill="white">
        <use xlink:href="#path-1"></use>
      </mask>
      <g id="Clip-2"></g>
      <path d="M18.6473961,8.17372396 L11.5330725,11.3249609 C11.3706376,11.3899349 11.2403648,11.5198828 11.1753909,11.6823177 L8.05664089,18.7644792 C7.76425807,19.4467057 6.66002565,19.2192969 6.36731797,18.4071224 L0.194791927,1.35145833 C-0.0651039062,0.669231771 0.487499609,0.116953125 1.20188828,0.344361979 L18.2900393,6.45191406 C19.1022138,6.77678385 19.3299475,7.84885417 18.6473961,8.17372396" id="Fill-1" fill="#000000" mask="url(#mask-2)"></path>
    </g>
    <path d="M11.5329426,20.3694009 C11.3380207,20.3694009 11.1755858,20.4018879 10.9806639,20.4018879 C5.78274727,20.4018879 1.55943997,16.1785806 1.55943997,10.9806639 C1.55943997,5.78274727 5.78274727,1.55943997 10.9806639,1.55943997 C16.1785806,1.55943997 20.4018879,5.78274727 20.4018879,10.9806639 C20.4018879,11.1755858 20.4018879,11.3380207 20.3694009,11.5329426 L21.863802,11.9227863 C21.8959641,11.5979165 21.8959641,11.3055337 21.8959641,10.9806639 C21.9287759,4.90559883 16.9907551,6.49739583e-05 10.948177,6.49739583e-05 C4.90559883,6.49739583e-05 6.49739583e-05,4.90559883 6.49739583e-05,10.9806639 C6.49739583e-05,17.055729 4.90559883,21.960938 10.9806639,21.960938 C11.3055337,21.960938 11.6304035,21.9287759 11.9552733,21.9287759 L11.5329426,20.3694009 Z" id="Fill-4" fill="#000000"></path>
    <path d="M10.6232097,16.9906251 C7.43948574,16.7957033 4.90550137,14.1642579 4.90550137,10.948047 C4.90550137,7.60188815 7.63440762,4.90546888 10.9480795,4.90546888 C14.1642904,4.90546888 16.7957357,7.43945326 16.9906576,10.6231772 L18.5500326,11.0455079 L18.5500326,10.980534 C18.5500326,6.78971367 15.1388998,3.37858086 10.9480795,3.37858086 C6.75725918,3.37858086 3.37861335,6.78971367 3.37861335,10.980534 C3.37861335,15.1713543 6.78974616,18.5824871 10.9805665,18.5824871 L11.0455404,18.5824871 L10.6232097,16.9906251 Z" id="Fill-6" fill="#000000"></path>
  </g>
</svg>