<?xml version="1.0" encoding="UTF-8"?>
<svg width="22px" height="21px" viewBox="0 0 22 21" version="1.1" xmlns="http://www.w3.org/2000/svg" xmlns:xlink="http://www.w3.org/1999/xlink">
    <!-- Generator: Sketch 45.2 (43514) - http://www.bohemiancoding.com/sketch -->
    <title>Fill 1</title>
    <desc>Created with Sketch.</desc>
    <defs></defs>
    <g id="Hints" stroke="none" stroke-width="1" fill="none" fill-rule="evenodd" opacity="0.5">
        <g id="Interaction-Tooltips-2" transform="translate(-864.000000, -160.000000)" fill="#000000">
            <g id="Hints-2" transform="translate(859.000000, 110.000000)">
                <g id="Hint-1" transform="translate(0.000000, 44.000000)">
                    <path d="M7.87843319,21.2389327 L7.87843319,22.2498262 C7.87843319,24.7101344 9.87982385,26.7115251 12.3401321,26.7115251 L18.623479,26.7115251 C20.1557539,26.7115251 21.5962452,26.1149322 22.6798007,25.0313768 L24.933596,22.7775814 C26.2657318,21.4454456 27,19.672239 27,17.7881272 C27,15.9040155 26.2657318,14.1308089 24.933596,12.7986731 L18.5928845,6.45796153 C17.9822691,5.84734616 16.91911,5.84734616 16.3072198,6.45796153 C15.6774829,7.08769846 15.6774829,8.11388921 16.3072198,8.74362614 L16.6144397,9.05084598 C16.7393672,9.17577355 16.8005563,9.33894426 16.8005563,9.50211496 C16.8005563,9.66528566 16.7380925,9.82845637 16.6144397,9.95338394 C16.3658593,10.2019643 15.9617569,10.2019643 15.7131765,9.95338394 L13.8124928,8.0527002 C13.1827558,7.42296326 12.1565651,7.42296326 11.5268281,8.0527002 C11.2221578,8.35864527 11.0538881,8.76402248 11.0538881,9.19489512 C11.0538881,9.62576776 11.2221578,10.0324197 11.5268281,10.33709 L13.4287866,12.2390486 C13.5537142,12.3639761 13.6149032,12.5271468 13.6149032,12.6903175 C13.6149032,12.8534882 13.5524394,13.0166589 13.4287866,13.1415865 C13.1802063,13.3901669 12.7761038,13.3901669 12.5275235,13.1415865 L9.67076139,10.2835497 C9.04102445,9.65381272 8.0148337,9.65381272 7.38509677,10.2835497 C6.75535983,10.9132866 6.75535983,11.9394773 7.38509677,12.5692143 L10.2418588,15.4259764 C10.3667864,15.5509039 10.4279754,15.7140746 10.4279754,15.8772453 C10.4279754,16.040416 10.3655116,16.2035867 10.2418588,16.3285143 C9.99327848,16.5770947 9.58917603,16.5770947 9.34059567,16.3285143 L7.75860471,14.7465234 C7.14798934,14.135908 6.08483022,14.135908 5.47294009,14.7465234 C5.16826979,15.0524684 5,15.4578456 5,15.8887183 C5,16.3195909 5.16826979,16.7262429 5.47294009,17.0309132 L10.2418588,21.7985572 C10.3667864,21.9247595 10.4279754,22.0879302 10.4279754,22.2511009 C10.4279754,22.4142716 10.3655116,22.5774423 10.2418588,22.7010951 C9.99327848,22.9509503 9.58917603,22.9509503 9.34059567,22.7010951 L7.87843319,21.2389327 Z" id="Fill-1"></path>
                </g>
            </g>
        </g>
    </g>
</svg>