<?xml version="1.0" encoding="UTF-8"?>
<svg width="31px" height="32px" viewBox="0 0 31 32" version="1.1" xmlns="http://www.w3.org/2000/svg" xmlns:xlink="http://www.w3.org/1999/xlink">
  <defs>
    <polygon id="path-1" points="2.2274871e-17 3.62951947 2.2274871e-17 0.268993596 1.34697238 0.268993596 1.34697238 3.62951947 0 3.62951947"></polygon>
    <polygon id="path-3" points="0.0208055119 0.233041541 3.31847426 0.233041541 3.31847426 1.65340177 0.0208055119 1.65340177 0.0208055119 0.233041541"></polygon>
  </defs>
  <g id="Hints" stroke="none" stroke-width="1" fill="none" fill-rule="evenodd" opacity="0.497169384">
    <g id="Group-3" transform="translate(12.304593, 12.444567)" fill="#000000">
      <path d="M18.0468115,7.91748382 L11.1111224,10.9749888 C10.9623487,11.0495621 10.8504887,11.1614221 10.7759154,11.3105687 L7.71841042,18.2458849 C7.42011724,18.9170446 6.33880449,18.6933247 6.0774251,17.9103051 L0.0746478665,1.28046073 C-0.149072013,0.609301092 0.372941039,0.0500013931 1.04410068,0.311007919 L17.7112317,6.27687137 C18.4942513,6.5378779 18.7179712,7.61919065 18.0468115,7.91748382" id="Fill-1"></path>
    </g>
    <path d="M9.65731604,20.7722417 C9.58274275,20.7722417 9.5454561,20.7722417 9.47088281,20.734955 C8.72514987,20.5112351 8.01670359,20.1756553 7.3828306,19.7282156 C7.12182407,19.5417823 7.04725078,19.2062025 7.23368401,18.945196 C7.42011724,18.6841895 7.75569706,18.6096162 8.01670359,18.7960494 C8.57600329,19.1689159 9.17258963,19.467209 9.84374927,19.6536423 C10.1420424,19.7655022 10.291189,20.0637954 10.2166157,20.3620886 C10.1420424,20.6230951 9.91832257,20.7722417 9.65731604,20.7722417" id="Fill-4" fill="#000000"></path>
    <path d="M5.63024635,17.8639578 C5.44381311,17.8639578 5.29466653,17.7893845 5.18280659,17.6402379 C4.73536683,17.0063649 4.36250036,16.3352053 4.06420719,15.5894724 C3.95234725,15.2911792 4.10149384,14.992886 4.39978701,14.8810261 C4.69808018,14.7691661 4.99637336,14.9183127 5.1082333,15.2166059 C5.33195318,15.8504789 5.66753299,16.4470652 6.07768611,16.9690783 C6.26411934,17.2300848 6.18954605,17.5656646 5.96582617,17.7520979 C5.85396623,17.8266712 5.74210629,17.8639578 5.63024635,17.8639578" id="Fill-6" fill="#000000"></path>
    <path d="M4.10145655,13.0911552 C3.80316338,13.0911552 3.54215685,12.8674353 3.54215685,12.5318555 L4.10145655,12.5318555 L3.54215685,12.5318555 C3.54215685,11.7488359 3.65401679,10.9658163 3.84045003,10.25737 C3.91502332,9.95907687 4.21331649,9.77264364 4.51160966,9.84721693 C4.80990284,9.92179022 4.99633607,10.2200834 4.92176278,10.5183766 C4.73532954,11.1522496 4.66075625,11.8234092 4.66075625,12.4945688 C4.66075625,12.8301487 4.39974972,13.0911552 4.10145655,13.0911552" id="Fill-8" fill="#000000"></path>
    <path d="M19.6872003,10.2201953 C19.4634804,10.2201953 19.2401334,10.0710487 19.1655601,9.84732879 C18.9414673,9.2134558 18.6062604,8.61686945 18.1957344,8.0948564 C18.0093012,7.83384987 18.0838744,7.49827006 18.3079672,7.31183682 C18.5686009,7.12540359 18.9041807,7.19997688 19.0906139,7.42369676 C19.5384265,8.05756975 19.911293,8.72872939 20.2092133,9.47446232 C20.3210732,9.7727555 20.1722995,10.0710487 19.8736335,10.1829086 C19.8363468,10.2201953 19.7617735,10.2201953 19.6872003,10.2201953" id="Fill-10" fill="#000000"></path>
    <path d="M5.63024635,8.35586293 C5.51838641,8.35586293 5.40652647,8.31857628 5.29466653,8.24400299 C5.03366,8.05756975 4.99637336,7.72198993 5.18280659,7.46098341 C5.63024635,6.82711042 6.18954605,6.26781072 6.78613239,5.78308431 C7.00985227,5.59665108 7.38271874,5.63393773 7.56915197,5.85765761 C7.7555852,6.08137748 7.71829856,6.45424395 7.49457868,6.64067718 C6.97256562,7.0508303 6.48783922,7.5355567 6.11497275,8.0948564 C5.96582617,8.28128963 5.77939293,8.35586293 5.63024635,8.35586293" id="Fill-12" fill="#000000"></path>
    <path d="M16.5553457,6.34223486 C16.4434857,6.34223486 16.3312529,6.30494822 16.2570525,6.26766157 C15.6977528,5.89479511 15.0638798,5.59650193 14.4300068,5.4100687 C14.1317136,5.29820876 13.982567,4.99991559 14.0571403,4.70162241 C14.1690003,4.40332924 14.4672934,4.25418266 14.7655866,4.32875595 C15.5113196,4.55247583 16.2197658,4.88805565 16.8536388,5.33549541 C17.1146454,5.52192864 17.1892186,5.85750846 17.0027854,6.11851498 C16.9282121,6.26766157 16.7417789,6.34223486 16.5553457,6.34223486" id="Fill-14" fill="#000000"></path>
    <path d="M9.65731604,5.44739263 C9.43359616,5.44739263 9.20987628,5.29824605 9.13530299,5.07452617 C9.02344305,4.77623299 9.20987628,4.47793982 9.50816945,4.36607988 C10.2539024,4.14236 10.9996353,3.99321342 11.7826549,3.95592677 C12.0809481,3.95592677 12.3419546,4.17964665 12.3792412,4.47793982 C12.3792412,4.77623299 12.1555214,5.03723952 11.8572282,5.07452617 C11.1860685,5.11181281 10.5149089,5.22367275 9.88103592,5.44739263 C9.76917598,5.41010599 9.69460269,5.44739263 9.65731604,5.44739263" id="Fill-16" fill="#000000"></path>
    <path d="M9.58266817,24.4262585 L9.47080823,24.4262585 C8.7250753,24.2398252 7.97934237,24.0161053 7.27089608,23.6805255 C6.97260291,23.5686656 6.86074297,23.2330858 6.97260291,22.9347926 C7.08446285,22.6364994 7.42004267,22.5246395 7.71833584,22.6364994 C8.35220884,22.9347926 9.06065512,23.1588853 9.73181476,23.3076591 C10.0301079,23.3822324 10.2165412,23.6805255 10.1419679,23.9788187 C10.0673946,24.2398252 9.8436747,24.4262585 9.58266817,24.4262585" id="Fill-18" fill="#000000"></path>
    <path d="M4.92183735,22.1890597 C4.80997741,22.1890597 4.66083082,22.151773 4.58625753,22.0771997 C3.98967118,21.5924733 3.43037149,21.0331736 2.90835843,20.4365873 C2.68463855,20.2128674 2.7219252,19.8400009 2.94564508,19.6535677 C3.16936496,19.4671345 3.54223143,19.4671345 3.72866466,19.728141 C4.17610442,20.250154 4.69811747,20.7721671 5.25741717,21.2196069 C5.48113705,21.4060401 5.55571034,21.7789066 5.33199046,22.0026264 C5.25741717,22.1144864 5.10827058,22.1890597 4.92183735,22.1890597" id="Fill-20" fill="#000000"></path>
    <path d="M1.71514846,18.1621764 C1.49142858,18.1621764 1.30499534,18.0503165 1.1931354,17.8638832 C0.857555585,17.1554369 0.596549059,16.409704 0.372829179,15.6639711 C0.298255886,15.3656779 0.484689119,15.0673847 0.782982292,14.9928114 C1.08127546,14.9182382 1.37956864,15.1046714 1.45414193,15.4029646 C1.64057516,16.0741242 1.86429504,16.7452838 2.19987486,17.3791568 C2.34902145,17.6401634 2.19987486,17.9757432 1.93886834,18.1248898 C1.86429504,18.1248898 1.78972175,18.1621764 1.71514846,18.1621764" id="Fill-22" fill="#000000"></path>
    <g id="Group-26" transform="translate(0.000000, 9.461636)">
      <mask id="mask-2" fill="white">
        <use xlink:href="#path-1"></use>
      </mask>
      <g id="Clip-25"></g>
      <path d="M0.559225126,3.62951947 C0.260931953,3.62951947 -7.45732932e-05,3.40579959 -7.45732932e-05,3.07021977 L-7.45732932e-05,3.03293312 C-7.45732932e-05,2.24991354 0.0744987199,1.50418061 0.223645306,0.721161032 C0.298218599,0.422867859 0.559225126,0.236434626 0.894804945,0.273721273 C1.19309812,0.348294566 1.37953135,0.609301092 1.3422447,0.944880911 C1.19309812,1.61604055 1.15581147,2.32448683 1.15581147,3.03293312 C1.11852482,3.36851294 0.857518298,3.62951947 0.559225126,3.62951947" id="Fill-24" fill="#000000" mask="url(#mask-2)"></path>
    </g>
    <path d="M23.3787274,10.1082235 C23.1177209,10.1082235 22.894001,9.95907687 22.8567144,9.69807034 C22.6702811,9.02691071 22.4092746,8.35575107 22.1109814,7.72187807 C21.9618348,7.46087155 22.0736948,7.12529173 22.371988,6.97614514 C22.6329945,6.82699856 22.9685743,6.9388585 23.1177209,7.23715167 C23.4533007,7.94559795 23.7143072,8.69133089 23.9380271,9.43706382 C24.0126004,9.73535699 23.8261672,10.0336502 23.527874,10.1082235 L23.3787274,10.1082235 Z" id="Fill-27" fill="#000000"></path>
    <path d="M1.67782452,8.09478183 C1.60325123,8.09478183 1.52867794,8.09478183 1.45410464,8.05749518 C1.19309812,7.90834859 1.04395153,7.57276878 1.19309812,7.31176225 C1.52867794,6.60331596 1.93883105,5.93215633 2.38627081,5.29828333 C2.57270404,5.03727681 2.90828386,4.99999016 3.16929039,5.18642339 C3.43029691,5.37285663 3.46758356,5.70843645 3.28115033,5.96944297 C2.87099721,6.52874267 2.49813075,7.16261566 2.19983758,7.79648865 C2.08797764,7.98292189 1.9015444,8.09478183 1.67782452,8.09478183" id="Fill-29" fill="#000000"></path>
    <path d="M20.9550954,5.55936443 C20.8059488,5.55936443 20.6568022,5.48479114 20.5449423,5.3729312 C20.0975025,4.85091815 19.5754895,4.3289051 19.0161898,3.91875198 C18.7924699,3.73231875 18.7178966,3.35945228 18.9416165,3.1357324 C19.1280497,2.87472588 19.5009162,2.83743923 19.724636,3.06115911 C20.3212224,3.54588552 20.9178087,4.10518522 21.4025351,4.66448491 C21.5889684,4.88820479 21.5889684,5.26107126 21.3279618,5.44750449 C21.2161019,5.48479114 21.104242,5.55936443 20.9550954,5.55936443" id="Fill-31" fill="#000000"></path>
    <path d="M4.88451342,4.03057464 C4.73536683,4.03057464 4.5489336,3.95600134 4.43707366,3.80685476 C4.25064042,3.58313488 4.28792707,3.21026841 4.51164695,3.02383518 C5.1082333,2.53910877 5.77939293,2.09166901 6.45055257,1.75608919 C6.7115591,1.60694261 7.04713892,1.71880255 7.1962855,1.97980907 C7.34543209,2.2408156 7.23357215,2.57639542 6.97256562,2.72554201 C6.33869263,3.06112182 5.74210629,3.43398829 5.18280659,3.88142805 C5.14551994,3.99328799 5.03366,4.03057464 4.88451342,4.03057464" id="Fill-33" fill="#000000"></path>
    <path d="M16.8164268,2.46446091 C16.7418535,2.46446091 16.6672802,2.46446091 16.592334,2.42717426 C15.958461,2.12888109 15.2503876,1.90516121 14.579228,1.75601462 C14.2809348,1.68144133 14.0945016,1.38314816 14.168702,1.08485498 C14.2436481,0.78656181 14.5415684,0.600128577 14.8402345,0.67470187 C15.5859674,0.861135103 16.3313275,1.08485498 17.0770604,1.4204348 C17.3757265,1.53229474 17.4875864,1.86787456 17.3757265,2.16616773 C17.2265799,2.35260097 17.0401466,2.46446091 16.8164268,2.46446091" id="Fill-35" fill="#000000"></path>
    <g id="Group-39" transform="translate(8.948795, 0.139974)">
      <mask id="mask-4" fill="white">
        <use xlink:href="#path-3"></use>
      </mask>
      <g id="Clip-38"></g>
      <path d="M0.596549059,1.65340177 C0.335542533,1.65340177 0.111822653,1.46696854 0.0372493599,1.20596201 C-0.0373239332,0.907668838 0.1491093,0.609375665 0.447402472,0.534802372 C1.1931354,0.348369139 1.97615498,0.273795846 2.75917456,0.236509199 C3.05746773,0.199222553 3.31847426,0.460229079 3.31847426,0.758522252 C3.31847426,1.05681542 3.09475438,1.31782195 2.79646121,1.31782195 C2.08801492,1.3551086 1.37956864,1.42968189 0.708408998,1.57882848 C0.671122352,1.65340177 0.633835705,1.65340177 0.596549059,1.65340177" id="Fill-37" fill="#000000" mask="url(#mask-4)"></path>
    </g>
    <path d="M20.7315246,13.4266977 C20.7688113,13.1284045 20.7688113,12.867398 20.7688113,12.5691048 L20.7688113,12.5318182 C20.7688113,12.233525 20.5074319,11.9725185 20.2095116,11.9725185 C19.9112184,11.9725185 19.6502119,12.233525 19.6502119,12.5318182 C19.6502119,12.7182514 19.6502119,12.9046847 19.6129253,13.1284045 L20.7315246,13.4266977 Z" id="Fill-40" fill="#000000"></path>
    <path d="M24.1991082,14.3217264 C24.2736815,13.72514 24.3478819,13.1285537 24.3478819,12.5319673 L24.3478819,12.4946807 C24.3478819,12.1963875 24.0872483,11.935381 23.7885822,11.935381 C23.4906619,11.935381 23.1923687,12.1963875 23.1923687,12.4946807 L23.1923687,12.5319673 C23.1923687,13.0539804 23.1550821,13.5387068 23.0805088,14.0607199 L24.1991082,14.3217264 Z" id="Fill-42" fill="#000000"></path>
    <path d="M12.9757903,19.9891848 C12.8266437,19.9891848 12.6774971,20.0264714 12.4910639,20.0264714 C12.1927707,20.0264714 11.9317642,20.287478 11.9690508,20.6230578 C11.9690508,20.921351 12.2300574,21.1450708 12.5283505,21.1450708 L12.5656372,21.1450708 C12.7893571,21.1450708 13.0503636,21.1077842 13.2740835,21.0704976 L12.9757903,19.9891848 Z" id="Fill-44" fill="#000000"></path>
    <path d="M13.9079565,23.4569548 C13.4605167,23.5315281 13.0130769,23.5688147 12.5283505,23.6057285 C12.2300574,23.6057285 11.9690508,23.8671079 11.9690508,24.1650282 C11.9690508,24.4636943 12.2300574,24.7243279 12.5283505,24.7243279 C13.0876502,24.7243279 13.6096633,24.6501275 14.168963,24.5755542 L13.9079565,23.4569548 Z" id="Fill-46" fill="#000000"></path>
  </g>
</svg>